<svg width="20" height="17" viewBox="0 0 20 17" fill="none" xmlns="http://www.w3.org/2000/svg">
<path d="M19.7429 1.51783L19.7429 1.51783C19.7771 1.13356 19.6961 0.935592 19.6067 0.831348C19.5163 0.726028 19.3776 0.669744 19.1978 0.654232C19.018 0.638707 18.8254 0.667158 18.6707 0.703193C18.5949 0.720862 18.5315 0.739572 18.4875 0.753676C18.4656 0.760708 18.4487 0.766539 18.4377 0.770441L18.4259 0.774738L18.4252 0.774985C17.0876 1.32317 15.7091 1.87981 14.3166 2.44215C10.0006 4.18506 5.54918 5.98265 1.75608 7.75232L1.74608 7.75698L1.73572 7.76074C1.23528 7.94249 0.963302 8.11424 0.82384 8.25268C0.693146 8.38242 0.690264 8.46895 0.697622 8.5159C0.707849 8.58116 0.752701 8.65216 0.817684 8.71791C0.84788 8.74847 0.877443 8.77282 0.899219 8.78931C0.901613 8.79112 0.903894 8.79283 0.906051 8.79442L4.13379 9.78028C4.13407 9.78036 4.13435 9.78045 4.13463 9.78053C4.85054 9.99358 5.38886 9.97894 5.74015 9.91708C5.91653 9.88601 6.04747 9.84274 6.13157 9.80895C6.17365 9.79205 6.20403 9.7775 6.22254 9.76803C6.23126 9.76357 6.23733 9.76023 6.24075 9.7583L13.2692 5.02402L19.7429 1.51783ZM19.7429 1.51783L19.7426 1.52203M19.7429 1.51783L19.7426 1.52203M19.7426 1.52203C19.719 1.85031 19.6007 2.59538 19.4412 3.59978L19.431 3.6644C19.2678 4.69244 19.0665 5.9663 18.8902 7.29074L17.6846 15.1196L17.6833 15.1277M19.7426 1.52203L17.6833 15.1277M17.6833 15.1277L17.6827 15.1352M17.6833 15.1277L17.6827 15.1352M17.6827 15.1352L17.6827 15.1353M17.6827 15.1352L17.6827 15.1353M17.6827 15.1353L17.6826 15.1356M17.6827 15.1353L17.6826 15.1356M17.6826 15.1356L17.6826 15.1357M17.6826 15.1356L17.6826 15.1357M17.6826 15.1357L17.6826 15.1359M17.6826 15.1357L17.6826 15.1359M17.6826 15.1359L17.6826 15.1361L17.6819 15.1425C17.6812 15.1487 17.68 15.1588 17.6781 15.1722C17.6743 15.199 17.6678 15.239 17.6573 15.288C17.6363 15.3869 17.6 15.5191 17.5398 15.655C17.4179 15.93 17.2157 16.1847 16.8728 16.2604C16.5071 16.341 16.0082 16.2001 15.5306 15.9784C15.065 15.7623 14.6799 15.4984 14.5696 15.4108L14.5696 15.4107L14.5634 15.4061C14.5148 15.37 14.3198 15.2433 14.0422 15.0629C13.9839 15.0251 13.922 14.9849 13.8571 14.9426C13.4749 14.6942 12.9719 14.3659 12.4361 14.0082C11.3593 13.2894 10.1673 12.4628 9.55347 11.9266L9.55348 11.9266L9.55101 11.9245C9.39409 11.791 9.25778 11.6155 9.22756 11.4269C9.20099 11.2611 9.24638 11.0173 9.60318 10.7074L9.60333 10.7076L9.61099 10.7003L14.8874 5.7122L14.8874 5.71225L14.8917 5.70796C15.0593 5.54158 15.225 5.32247 15.3391 5.11172C15.396 5.00644 15.4447 4.89497 15.472 4.78706C15.4977 4.68591 15.5142 4.55134 15.4616 4.42462C15.3989 4.27336 15.2648 4.19316 15.1165 4.17471C14.9843 4.15827 14.8347 4.18793 14.6772 4.24176C14.3575 4.35099 13.9019 4.59696 13.2694 5.02388L17.6826 15.1359Z" fill="#050505" stroke="white" stroke-width="0.5"/>
</svg>
